<svg width="22" height="28" viewBox="0 0 22 28" fill="none" xmlns="http://www.w3.org/2000/svg">
<path d="M6 16.6667C6.88405 16.6667 7.7319 16.3155 8.35702 15.6904C8.98214 15.0653 9.33333 14.2174 9.33333 13.3334C9.33333 11.4934 8.66666 10.6667 8 9.33337C6.57066 6.47604 7.70133 3.92804 10.6667 1.33337C11.3333 4.66671 13.3333 7.86671 16 10C18.6667 12.1334 20 14.6667 20 17.3334C20 18.559 19.7586 19.7727 19.2895 20.9051C18.8205 22.0375 18.133 23.0664 17.2663 23.933C16.3996 24.7997 15.3707 25.4872 14.2384 25.9563C13.106 26.4253 11.8923 26.6667 10.6667 26.6667C9.44099 26.6667 8.22732 26.4253 7.09495 25.9563C5.96258 25.4872 4.93368 24.7997 4.067 23.933C3.20032 23.0664 2.51283 22.0375 2.04379 20.9051C1.57474 19.7727 1.33333 18.559 1.33333 17.3334C1.33333 15.796 1.91066 14.2747 2.66666 13.3334C2.66666 14.2174 3.01785 15.0653 3.64297 15.6904C4.26809 16.3155 5.11594 16.6667 6 16.6667Z" stroke="white" stroke-width="2.66667" stroke-linecap="round" stroke-linejoin="round"/>
</svg>
