<svg width="32" height="32" viewBox="0 0 32 32" fill="none" xmlns="http://www.w3.org/2000/svg">
<path d="M14.6667 26.6666C12.3254 26.6737 10.067 25.8006 8.33937 24.2205C6.61172 22.6404 5.54103 20.4687 5.33966 18.1361C5.13829 15.8035 5.82093 13.4804 7.25221 11.6276C8.68349 9.77479 10.7589 8.52756 13.0667 8.13329C20.6667 6.66663 22.6667 5.97329 25.3333 2.66663C26.6667 5.33329 28 8.23996 28 13.3333C28 20.6666 21.6267 26.6666 14.6667 26.6666Z" stroke="white" stroke-width="2.66667" stroke-linecap="round" stroke-linejoin="round"/>
<path d="M2.66663 28C2.66663 24 5.13329 20.8533 9.43996 20C12.6666 19.36 16 17.3333 17.3333 16" stroke="white" stroke-width="2.66667" stroke-linecap="round" stroke-linejoin="round"/>
</svg>
